#N canvas -1293 83 889 685 12;
#X declare -path lib;
#X obj 71 463 out-panel;
#X obj 71 62 in-panel;
#X obj 71 155 quack-panel 1;
#X text 440 359 You can also change the number of channels and/or the
block size of the audio you send to the other site. Click "2X" to send
each outgoing packet twice (this doubles the data rate but might give
fewer dropped packets).;
#X text 440 199 If the "calling" button is flashing we're either waiting
for a response from the server \, or from the peer. Once both of these
arrive the "connected" toggle turns on (gets an "x" mark.) At this
point a call is in progress and the "packets in" counter should be
changing. Press the "reset" button to set packet and drop counts back
to zero.;
#N canvas 784 72 786 401 more-stuff 0;
#X obj 621 336 declare -path lib;
#X text 344 231 <--- this is for testing behind a common NAT router
using a local conniption server. It won't work unless you have one
set up., f 45;
#X msg 88 228 \; quack-panel-1 server 192.168.1.65 \; quack-panel-1
call-name poodle;
#X text 17 56 place a call via server;
#X msg 196 91 \; quack-panel-1 call-name port_4477 \, server localhost
\, on-off 1, f 68;
#X text 68 94 test: localhost \, client, f 16;
#X text 94 141 test: server;
#X msg 195 135 \; quack-panel-1 call-name port_4477 \, server me \,
on-off 1, f 68;
#X msg 196 52 \; quack-panel-1 call-name fred \, server foo.ucsd.edu
\, on-off 1;
#X text 226 14 scripting examples:;
#X restore 773 643 pd more-stuff;
#X text 440 425 Be sure your sample rate matches your peer's - if they
don't you'll get breaks in the sound. (Sample rate is set in Pd's Media
menu \, not in this window).;
#X obj 440 623 pdcontrol;
#X msg 440 596 browse http://msp.ucsd.edu/tools/quacktrip/doc.htm;
#X text 440 571 click here to open detailed documentation in your browser:
;
#X text 515 642 ... or here for scripting examples:;
#X text 132 615 Quacktrip is open-source software with a BSD license.
, f 29;
#X text 47 11 Quacktrip version 0.92: Peer-to-peer audio;
#X text 440 11 This is a Pure Data patch allowing musicians (or others)
to make point-to-point \, uncompressed \, low-latency audio connections
\, through home routers. It's best if you can run an ethernet cable
from your computer to your router \, but this will work over "wifi"
(wireless networks) too.;
#X text 440 91 To make a call \, enter a unique "call name" (click
on the text area that says "this-call-name" and type in a new name)
\, then click "ON/OFF so that an "X" appears. When someone else makes
a call with the same name \, quacktrip should connect you together
in a call. A public "conniption" server (by default foo.ucsd.edu) helps
make the connection \, but the audio runs straight between the two
computers.;
#X text 440 293 The input delay can be set to absorb network time variations
(in units of 64 samples). The "fill" range shows how far ahead of the
incoming stream we are. If the lower number drops below 2 there will
be a dropout in the audio output.;
#X text 440 477 IN and OUT panels: the "level" control is 50 for unit
gain \, 100 for +24 dB. Meters are post-fader. The "test" button sends
sine tones (660 and 880 Hz) \, also affected by the level control.
"Input monitor" loops your input to your own output \, with optional
delay in milliseconds \, so you can hear yourself in sync with the
other caller.;
#N canvas -8 -8 1920 997 (subpatch) 0;
#X msg 205 163 disconnect;
#X obj 186 186 netsend;
#X msg 186 141 connect localhost 3005;
#X obj 5 19 tgl 15 0 empty empty empty 17 7 0 10 -262144 -1 -1 0 1
;
#X text 4 2 WebTrip;
#X text 21 17 connected;
#X obj 224 119 s inpanel;
#X obj 244 98 s quackpanel;
#X obj 263 76 s outpanel;
#X obj 143 349 r dropouts-set;
#X obj 186 9 netreceive 3006;
#X obj 249 349 r calling;
#X floatatom 143 374 5 0 0 0 - - -;
#X obj 445 374 tgl 15 0 empty empty empty 17 7 0 10 -262144 -1 -1 0
1;
#X floatatom 557 374 5 0 0 0 - - -;
#X floatatom 676 374 5 0 0 0 - - -;
#X floatatom 781 374 5 0 0 0 - - -;
#X floatatom 886 374 5 0 0 0 - - -;
#X floatatom 992 374 5 0 0 0 - - -;
#X floatatom 1097 374 5 0 0 0 - - -;
#X floatatom 1209 374 5 0 0 0 - - -;
#X floatatom 1336 374 5 0 0 0 - - -;
#X floatatom 1447 374 5 0 0 0 - - -;
#X floatatom 1560 374 5 0 0 0 - - -;
#X floatatom 1678 374 5 0 0 0 - - -;
#X obj 349 71 bng 15 250 50 0 empty empty empty 17 7 0 10 -262144 -1
-1;
#X obj 186 38 route 0 1 2 3 4 5;
#X msg 431 678 \$2 \$3 \$4 \$5 \$6 \$7 \$8 \$9 \$10 \$11 \$12 \$13
\$14 \$15 \$16;
#X obj 319 349 r server-answered;
#X obj 445 349 r connected-set;
#X obj 557 349 r packets-in-set;
#X obj 676 349 r min-fill-set;
#X obj 781 349 r max-fill-set;
#X obj 886 349 r local-sr-set;
#X obj 992 349 r local-ch-set;
#X obj 1097 349 r local-blk-set;
#X obj 1209 349 r local-kbits-set;
#X obj 1336 349 r remote-sr-set;
#X obj 1447 349 r remote-ch-set;
#X obj 1560 349 r remote-blk-set;
#X obj 1678 349 r remote-kbits-set;
#X obj 249 374 bng 15 250 50 0 empty empty empty 17 7 0 10 -262144
-1 -1;
#X obj 319 374 bng 15 250 50 0 empty empty empty 17 7 0 10 -262144
-1 -1;
#X obj 431 652 pack f f f f f f f f f f f f f f f f;
#X obj 249 395 tgl 15 0 empty empty empty 17 7 0 10 -262144 -1 -1 1
1;
#X obj 319 395 tgl 15 0 empty empty empty 17 7 0 10 -262144 -1 -1 0
1;
#X connect 0 0 1 0;
#X connect 1 0 3 0;
#X connect 2 0 1 0;
#X connect 9 0 12 0;
#X connect 10 0 26 0;
#X connect 11 0 41 0;
#X connect 12 0 43 1;
#X connect 13 0 43 4;
#X connect 14 0 43 5;
#X connect 15 0 43 6;
#X connect 16 0 43 7;
#X connect 17 0 43 8;
#X connect 18 0 43 9;
#X connect 19 0 43 10;
#X connect 20 0 43 11;
#X connect 21 0 43 12;
#X connect 22 0 43 13;
#X connect 23 0 43 14;
#X connect 24 0 43 15;
#X connect 25 0 43 0;
#X connect 26 0 2 0;
#X connect 26 1 0 0;
#X connect 26 2 6 0;
#X connect 26 3 7 0;
#X connect 26 4 8 0;
#X connect 26 5 25 0;
#X connect 27 0 1 0;
#X connect 28 0 42 0;
#X connect 29 0 13 0;
#X connect 30 0 14 0;
#X connect 31 0 15 0;
#X connect 32 0 16 0;
#X connect 33 0 17 0;
#X connect 34 0 18 0;
#X connect 35 0 19 0;
#X connect 36 0 20 0;
#X connect 37 0 21 0;
#X connect 38 0 22 0;
#X connect 39 0 23 0;
#X connect 40 0 24 0;
#X connect 41 0 44 0;
#X connect 42 0 45 0;
#X connect 43 0 27 0;
#X connect 44 0 43 2;
#X connect 45 0 43 3;
#X coords 0 1 100 -1 100 40 1 0 0;
#X restore 266 79 graph;
#X connect 1 0 2 0;
#X connect 1 1 2 1;
#X connect 2 0 0 0;
#X connect 2 1 0 1;
#X connect 8 0 7 0;
